<?xml version="1.0" encoding="UTF-8" standalone="no"?>
<svg
   xmlns:dc="http://purl.org/dc/elements/1.1/"
   xmlns:cc="http://creativecommons.org/ns#"
   xmlns:rdf="http://www.w3.org/1999/02/22-rdf-syntax-ns#"
   xmlns:svg="http://www.w3.org/2000/svg"
   xmlns="http://www.w3.org/2000/svg"
   xmlns:sodipodi="http://sodipodi.sourceforge.net/DTD/sodipodi-0.dtd"
   xmlns:inkscape="http://www.inkscape.org/namespaces/inkscape"
   width="20mm"
   height="20mm"
   viewBox="0 0 20 20"
   version="1.1"
   id="svg10280"
   inkscape:version="1.0.2 (e86c870879, 2021-01-15, custom)"
   sodipodi:docname="br-icon.svg">
  <defs
     id="defs10274" />
  <sodipodi:namedview
     id="base"
     pagecolor="#ffffff"
     bordercolor="#666666"
     borderopacity="1.0"
     inkscape:pageopacity="0.0"
     inkscape:pageshadow="2"
     inkscape:zoom="7.9195959"
     inkscape:cx="67.55002"
     inkscape:cy="50.028206"
     inkscape:document-units="mm"
     inkscape:current-layer="text11477"
     inkscape:document-rotation="0"
     showgrid="true"
     inkscape:window-width="1920"
     inkscape:window-height="1011"
     inkscape:window-x="0"
     inkscape:window-y="0"
     inkscape:window-maximized="1">
    <inkscape:grid
       type="xygrid"
       id="grid11187"
       enabled="false"
       empspacing="15"
       visible="false" />
  </sodipodi:namedview>
  <metadata
     id="metadata10277">
    <rdf:RDF>
      <cc:Work
         rdf:about="">
        <dc:format>image/svg+xml</dc:format>
        <dc:type
           rdf:resource="http://purl.org/dc/dcmitype/StillImage" />
        <dc:title />
      </cc:Work>
    </rdf:RDF>
  </metadata>
  <g
     inkscape:label="Layer 1"
     inkscape:groupmode="layer"
     id="layer1">
    <g
       aria-label="&lt;BR&gt;"
       id="text11477"
       style="font-size:10.1524px;line-height:1.25;font-family:'Alte DIN 1451 Mittelschrift';-inkscape-font-specification:'Alte DIN 1451 Mittelschrift';stroke-width:0.692205">
      <path
         d="M 4.5583429,12.796986 0.16235371,10.197972 V 9.5786755 L 4.5278857,7.2537759 V 8.2994731 L 1.3400321,9.9035523 4.5583429,11.680222 Z"
         style="font-style:normal;font-variant:normal;font-weight:bold;font-stretch:normal;font-family:Inconsolata;-inkscape-font-specification:Inconsolata;stroke-width:0.692205"
         id="path834" />
      <path
         d="M 5.2791438,13.162473 V 6.8375275 h 1.928956 q 1.1370688,0 1.6852984,0.4467056 0.5482296,0.4467056 0.5482296,1.1472212 0,0.406096 -0.2335052,0.8020396 -0.2233528,0.3959436 -0.659906,0.5685344 0.5177724,0.2233527 0.8223444,0.6396017 0.3147244,0.406096 0.3147244,0.893411 0,0.822344 -0.6192964,1.329964 -0.609144,0.497468 -1.8680416,0.497468 z M 6.426365,9.3654751 h 0.6903632 q 0.6700584,0 0.913716,-0.2233528 0.25381,-0.2335052 0.25381,-0.609144 0,-0.3451816 -0.25381,-0.558382 -0.25381,-0.2132004 -0.812192,-0.2132004 H 6.426365 Z m 0,2.8528249 h 0.8934112 q 0.5380772,0 0.8528016,-0.233506 0.3248768,-0.233505 0.3248768,-0.68021 0,-0.456858 -0.304572,-0.741126 Q 7.898463,10.279191 7.1471854,10.279191 H 6.426365 Z"
         style="font-style:normal;font-variant:normal;font-weight:bold;font-stretch:normal;font-family:Inconsolata;-inkscape-font-specification:Inconsolata;stroke-width:0.692205"
         id="path836" />
      <path
         d="M 10.436543,13.162473 V 6.8375275 h 2.000023 q 1.157374,0 1.695451,0.50762 0.538077,0.50762 0.538077,1.3502692 0,0.3451816 -0.152286,0.7005156 -0.142133,0.3451816 -0.416248,0.6192967 -0.263963,0.274115 -0.619297,0.406096 l 1.360422,2.741148 h -1.208136 l -1.279202,-2.629472 h -0.76143 v 2.629472 z m 1.157374,-3.5837975 h 0.923868 q 0.487316,0 0.730973,-0.2233528 0.243658,-0.2335052 0.243658,-0.6294488 0,-0.3654864 -0.243658,-0.6294488 -0.243657,-0.2639624 -0.730973,-0.2639624 h -0.923868 z"
         style="font-style:normal;font-variant:normal;font-weight:bold;font-stretch:normal;font-family:Inconsolata;-inkscape-font-specification:Inconsolata;stroke-width:0.692205"
         id="path838" />
      <path
         d="M 15.441657,12.796986 V 11.71068 L 18.649815,9.9035523 15.461962,8.2994731 V 7.2537759 l 4.375684,2.3248996 v 0.6192965 z"
         style="font-style:normal;font-variant:normal;font-weight:bold;font-stretch:normal;font-family:Inconsolata;-inkscape-font-specification:Inconsolata;stroke-width:0.692205"
         id="path840" />
    </g>
    <rect
       style="fill:none;stroke:none;stroke-width:0;stroke-opacity:0.65"
       id="rect11749"
       width="20.153042"
       height="20.115458"
       x="0"
       y="0" />
  </g>
</svg>
